<?xml version="1.0" standalone="no"?>
<!DOCTYPE svg PUBLIC "-//W3C//DTD SVG 20010904//EN"
 "http://www.w3.org/TR/2001/REC-SVG-20010904/DTD/svg10.dtd">
<svg version="1.0" xmlns="http://www.w3.org/2000/svg"
 width="1024.000000pt" height="1024.000000pt" viewBox="0 0 1024.000000 1024.000000"
 preserveAspectRatio="xMidYMid meet">

<g transform="translate(0.000000,1024.000000) scale(0.100000,-0.100000)"
fill="#000000" stroke="none">
<path d="M3605 9476 c-212 -58 -373 -182 -454 -349 -55 -111 -64 -164 -66
-367 l-2 -185 -35 -75 c-62 -131 -86 -268 -95 -530 -6 -192 7 -471 33 -720 19
-183 17 -180 59 -180 18 0 283 -32 587 -71 304 -39 690 -88 858 -109 168 -21
391 -51 495 -65 105 -14 244 -33 310 -41 66 -8 126 -17 133 -19 18 -6 92 -166
135 -291 93 -269 134 -621 108 -939 -16 -186 -23 -220 -52 -244 -36 -30 -290
-155 -409 -201 -171 -68 -424 -148 -677 -216 -90 -23 -103 -30 -103 -48 0 -12
9 -131 19 -266 11 -135 18 -246 16 -248 -2 -2 -11 23 -20 55 -26 88 -121 366
-133 390 -9 15 -38 26 -129 48 -197 46 -697 222 -752 264 l-24 19 34 18 c20
10 65 19 112 22 42 3 77 7 77 11 0 4 -10 15 -22 25 -78 67 -220 78 -323 26
-33 -17 -74 -42 -90 -55 l-30 -25 48 -44 c26 -24 47 -47 47 -49 0 -3 -26 7
-57 23 -90 45 -107 46 -122 13 -57 -123 -76 -279 -47 -393 28 -110 76 -201
157 -296 23 -27 26 -41 28 -110 10 -465 107 -780 293 -950 152 -138 298 -148
567 -39 379 153 896 450 1376 789 103 72 357 273 480 380 39 33 73 62 77 65 4
4 1 186 -7 406 -7 220 -15 535 -17 699 l-3 299 100 17 c55 10 111 19 125 21
l25 4 -1 -100 c-1 -116 -23 -186 -81 -262 -19 -25 -29 -44 -22 -41 8 3 43 15
79 27 100 32 272 122 294 153 16 23 19 45 20 150 l1 123 50 17 c79 26 78 26
70 -39 -11 -96 -34 -172 -91 -305 -30 -70 -54 -130 -54 -134 0 -17 65 55 110
121 83 123 132 236 171 393 8 34 17 46 44 59 19 9 37 14 40 12 10 -10 -85
-283 -148 -424 l-39 -90 17 -135 c9 -74 20 -144 24 -154 9 -24 17 -11 126 199
91 175 228 434 313 590 52 97 67 116 123 158 87 66 162 136 192 183 41 62 61
154 53 253 -3 46 -9 88 -12 93 -4 5 -16 -7 -28 -26 -36 -60 -166 -185 -251
-241 -287 -189 -630 -282 -1112 -302 l-152 -6 -5 34 c-5 29 -27 367 -30 453
-1 28 2 29 84 52 140 37 470 157 1110 403 360 139 440 172 440 180 0 27 -61
207 -71 213 -8 4 -117 23 -244 43 -126 20 -385 61 -575 91 -686 108 -910 143
-1218 190 -172 26 -309 51 -305 55 5 3 67 29 138 57 316 123 392 153 808 318
241 96 445 174 454 174 46 0 -22 34 -282 142 -1155 477 -2051 816 -2277 862
-115 24 -293 20 -393 -8z m-182 -4975 c30 -11 147 -45 259 -76 112 -31 230
-64 263 -73 l60 -18 -5 -74 c-3 -41 -5 -98 -5 -127 0 -28 -2 -50 -5 -48 -3 2
-28 39 -54 82 -27 43 -51 79 -52 81 -3 4 -191 42 -361 72 l-121 22 -21 77
c-20 75 -25 101 -18 101 2 0 29 -9 60 -19z"/>
<path d="M6086 5329 c19 -110 27 -140 51 -177 50 -77 113 -80 212 -7 52 38
141 139 141 159 0 4 -13 -2 -29 -13 -42 -30 -144 -54 -194 -46 -55 10 -90 28
-143 77 l-44 41 6 -34z"/>
<path d="M6912 2768 l-112 -93 3 -645 2 -645 138 -3 137 -3 0 741 0 740 -28 0
c-21 0 -57 -24 -140 -92z"/>
<path d="M8965 2846 c-37 -16 -83 -68 -91 -102 -21 -82 24 -170 101 -199 112
-43 235 35 235 150 0 45 -34 109 -71 135 -40 29 -129 37 -174 16z"/>
<path d="M1511 2835 c-35 -8 -107 -35 -159 -61 -81 -39 -109 -60 -177 -128
-148 -151 -204 -284 -212 -502 -10 -254 53 -430 211 -584 105 -103 203 -155
351 -187 96 -20 304 -13 397 15 176 53 322 170 397 320 61 122 74 192 72 385
l-1 67 -350 0 -350 0 0 -115 0 -115 205 0 205 0 0 -23 c0 -40 -59 -145 -103
-182 -76 -65 -139 -88 -259 -93 -88 -4 -118 -1 -175 16 -135 41 -235 143 -284
289 -30 90 -31 238 -1 330 39 122 125 223 230 271 80 36 240 43 324 13 82 -28
143 -74 185 -137 l36 -54 159 0 160 0 -6 28 c-14 59 -77 170 -132 230 -93 103
-231 185 -367 217 -78 18 -270 18 -356 0z"/>
<path d="M5090 2599 c-75 -71 -147 -124 -257 -190 l-33 -19 0 -95 0 -95 89 0
90 0 3 -297 c3 -278 4 -301 24 -344 30 -63 79 -116 138 -147 48 -25 60 -27
219 -30 l167 -4 0 120 0 119 -98 5 c-53 3 -108 10 -120 17 -13 7 -32 31 -43
54 -16 37 -19 68 -19 275 l0 232 148 0 147 0 0 113 0 112 -147 3 -148 3 0 124
0 125 -38 0 c-34 0 -47 -9 -122 -81z"/>
<path d="M2879 2432 c-180 -47 -321 -201 -365 -399 -23 -103 -15 -263 16 -348
59 -158 182 -267 347 -310 67 -18 210 -20 285 -4 143 29 286 135 347 257 17
34 30 62 29 62 -2 1 -61 2 -132 3 l-130 2 -40 -34 c-66 -55 -121 -76 -201 -75
-123 0 -217 67 -247 177 l-15 52 394 3 393 2 0 93 c0 166 -46 284 -149 388
-104 103 -222 149 -381 148 -47 0 -115 -8 -151 -17z m255 -225 c49 -14 96 -60
124 -120 43 -92 57 -87 -228 -87 l-250 0 6 28 c24 100 97 168 209 196 25 6 89
-1 139 -17z"/>
<path d="M4160 2436 c-65 -19 -100 -39 -158 -91 l-52 -47 0 40 c0 23 -4 52
-10 66 -9 26 -10 26 -125 26 l-115 0 0 -525 0 -525 140 0 140 0 0 316 c0 208
4 330 11 355 28 91 112 149 217 149 100 0 159 -37 199 -125 16 -35 18 -78 21
-368 l3 -328 137 3 137 3 3 305 c3 361 -5 441 -55 540 -42 86 -121 160 -201
191 -71 27 -224 35 -292 15z"/>
<path d="M5993 2435 c-176 -38 -329 -193 -378 -382 -19 -73 -19 -210 0 -292
45 -191 188 -335 381 -385 77 -20 209 -20 292 -1 131 31 255 119 319 226 56
96 59 93 -100 92 l-139 -1 -36 -35 c-58 -55 -97 -70 -182 -71 -127 -1 -201 45
-259 161 -39 79 -68 73 374 73 l395 0 6 26 c9 37 -4 161 -25 237 -48 173 -190
311 -362 352 -78 18 -202 18 -286 0z m272 -244 c56 -32 102 -95 112 -154 l6
-37 -252 0 c-154 0 -251 4 -251 10 0 5 9 34 21 64 52 139 225 195 364 117z"/>
<path d="M8100 2443 c-99 -16 -221 -81 -269 -142 -38 -48 -70 -121 -78 -178
l-6 -43 135 0 135 0 18 39 c34 77 83 103 186 103 111 -1 177 -43 198 -128 22
-87 35 -81 -176 -87 -207 -6 -258 -15 -351 -59 -117 -55 -171 -132 -179 -258
-5 -68 -3 -84 19 -131 59 -128 192 -199 369 -199 121 0 225 38 305 112 48 44
46 45 60 -37 l9 -50 108 -3 107 -3 0 343 c0 189 -4 370 -10 402 -27 164 -138
273 -315 311 -65 14 -206 18 -265 8z m326 -680 c-14 -121 -86 -175 -240 -181
-133 -6 -196 30 -196 112 0 48 40 92 98 110 31 10 97 15 196 15 l149 1 -7 -57z"/>
<path d="M8910 1905 l0 -525 135 0 135 0 0 525 0 525 -135 0 -135 0 0 -525z"/>
<path d="M7375 1705 c-136 -48 -152 -249 -25 -316 43 -24 120 -25 167 -3 69
33 109 127 89 208 -14 58 -104 126 -166 125 -14 0 -43 -6 -65 -14z"/>
</g>
</svg>
